{"asset":{"version":"2.0","generator":"Blockbench 4.10.4 glTF exporter"},"scenes":[{"nodes":[3],"name":"blockbench_export"}],"scene":0,"nodes":[{"name":"beveled_cuboid","mesh":0},{"rotation":[0,0,0.21643961393810288,0.9762960071199334],"translation":[0.1875,0.375,0],"name":"cube","mesh":1},{"name":"bone","children":[0,1]},{"children":[2]}],"bufferViews":[{"buffer":0,"byteOffset":0,"byteLength":26256,"target":34962,"byteStride":12},{"buffer":0,"byteOffset":26256,"byteLength":26256,"target":34962,"byteStride":12},{"buffer":0,"byteOffset":52512,"byteLength":17504,"target":34962,"byteStride":8},{"buffer":0,"byteOffset":70016,"byteLength":4872,"target":34963},{"buffer":0,"byteOffset":74888,"byteLength":72,"target":34963},{"buffer":0,"byteOffset":74960,"byteLength":1512,"target":34963},{"buffer":0,"byteOffset":76472,"byteLength":72,"target":34963},{"buffer":0,"byteOffset":76544,"byteLength":2880,"target":34962,"byteStride":12},{"buffer":0,"byteOffset":79424,"byteLength":2880,"target":34962,"byteStride":12},{"buffer":0,"byteOffset":82304,"byteLength":1920,"target":34962,"byteStride":8},{"buffer":0,"byteOffset":84224,"byteLength":144,"target":34963},{"buffer":0,"byteOffset":84368,"byteLength":72,"target":34963},{"buffer":0,"byteOffset":84440,"byteLength":504,"target":34963}],"buffers":[{"byteLength":84944,"uri":"data:application/octet-stream;base64,"}],"accessors":[{"bufferView":0,"componentType":5126,"count":2188,"max":[0.6875,1.0625,0.581250011920929],"min":[-0.46875,0,-0.59375],"type":"VEC3"},{"bufferView":1,"componentType":5126,"count":2188,"max":[1,1,1],"min":[-1,-1,-1],"type":"VEC3"},{"bufferView":2,"componentType":5126,"count":2188,"max":[1,0.75],"min":[0,0],"type":"VEC2"},{"bufferView":3,"componentType":5123,"count":2436,"max":[1635],"min":[0],"type":"SCALAR"},{"bufferView":4,"componentType":5123,"count":36,"max":[1659],"min":[1636],"type":"SCALAR"},{"bufferView":5,"componentType":5123,"count":756,"max":[2163],"min":[1660],"type":"SCALAR"},{"bufferView":6,"componentType":5123,"count":36,"max":[2187],"min":[2164],"type":"SCALAR"},{"bufferView":7,"componentType":5126,"count":240,"max":[-0.1346742957830429,0.15625,-0.5],"min":[-0.9375,-0.17251446843147278,-0.625],"type":"VEC3"},{"bufferView":8,"componentType":5126,"count":240,"max":[1,1,1],"min":[-1,-1,-1],"type":"VEC3"},{"bufferView":9,"componentType":5126,"count":240,"max":[0.8125,0.8125],"min":[0,0],"type":"VEC2"},{"bufferView":10,"componentType":5123,"count":72,"max":[47],"min":[0],"type":"SCALAR"},{"bufferView":11,"componentType":5123,"count":36,"max":[71],"min":[48],"type":"SCALAR"},{"bufferView":12,"componentType":5123,"count":252,"max":[239],"min":[72],"type":"SCALAR"}],"materials":[{"pbrMetallicRoughness":{"metallicFactor":0,"roughnessFactor":1,"baseColorTexture":{"index":0}},"alphaMode":"MASK","alphaCutoff":0.05,"doubleSided":true},{"pbrMetallicRoughness":{"metallicFactor":0,"roughnessFactor":1,"baseColorTexture":{"index":1}},"alphaMode":"MASK","alphaCutoff":0.05,"doubleSided":true},{"pbrMetallicRoughness":{"metallicFactor":0,"roughnessFactor":1,"baseColorTexture":{"index":2}},"alphaMode":"MASK","alphaCutoff":0.05,"doubleSided":true},{"pbrMetallicRoughness":{"metallicFactor":0,"roughnessFactor":1,"baseColorTexture":{"index":3}},"alphaMode":"MASK","alphaCutoff":0.05,"doubleSided":true},{"pbrMetallicRoughness":{"metallicFactor":0,"roughnessFactor":1,"baseColorTexture":{"index":4}},"alphaMode":"MASK","alphaCutoff":0.05,"doubleSided":true}],"textures":[{"sampler":0,"source":0,"name":"texture"},{"sampler":1,"source":1,"name":"texture"},{"sampler":2,"source":2,"name":"texture"},{"sampler":3,"source":3,"name":"texture"},{"sampler":4,"source":4,"name":"texture"}],"samplers":[{"magFilter":9728,"minFilter":9728,"wrapS":33071,"wrapT":33071},{"magFilter":9728,"minFilter":9728,"wrapS":33071,"wrapT":33071},{"magFilter":9728,"minFilter":9728,"wrapS":33071,"wrapT":33071},{"magFilter":9728,"minFilter":9728,"wrapS":33071,"wrapT":33071},{"magFilter":9728,"minFilter":9728,"wrapS":33071,"wrapT":33071}],"images":[{"mimeType":"image/png","uri":"data:image/png;base64,"},{"mimeType":"image/png","uri":"data:image/png;base64,"},{"mimeType":"image/png","uri":"data:image/png;base64,"},{"mimeType":"image/png","uri":"data:image/png;base64,"},{"mimeType":"image/png","uri":"data:image/png;base64,"}],"meshes":[{"primitives":[{"mode":4,"attributes":{"POSITION":0,"NORMAL":1,"TEXCOORD_0":2},"indices":3,"material":0},{"mode":4,"attributes":{"POSITION":0,"NORMAL":1,"TEXCOORD_0":2},"indices":4,"material":1},{"mode":4,"attributes":{"POSITION":0,"NORMAL":1,"TEXCOORD_0":2},"indices":5,"material":0},{"mode":4,"attributes":{"POSITION":0,"NORMAL":1,"TEXCOORD_0":2},"indices":6,"material":2}]},{"primitives":[{"mode":4,"attributes":{"POSITION":7,"NORMAL":8,"TEXCOORD_0":9},"indices":10,"material":3},{"mode":4,"attributes":{"POSITION":7,"NORMAL":8,"TEXCOORD_0":9},"indices":11,"material":4},{"mode":4,"attributes":{"POSITION":7,"NORMAL":8,"TEXCOORD_0":9},"indices":12,"material":3}]}]}