{"asset":{"version":"2.0","generator":"Blockbench 4.10.4 glTF exporter"},"scenes":[{"nodes":[4],"name":"blockbench_export"}],"scene":0,"nodes":[{"rotation":[0,0,-0.7071067811865475,0.7071067811865476],"translation":[0.4375,0.3125,0.1875],"name":"tube","mesh":0},{"name":"bone","children":[0]},{"translation":[-0.125,0.375,-0.5625],"name":"cube","mesh":1},{"rotation":[0,0,0.10886687485196457,0.9940563382223196],"translation":[0.125,0,0],"name":"bone2","children":[2]},{"children":[1,3]}],"bufferViews":[{"buffer":0,"byteOffset":0,"byteLength":25104,"target":34962,"byteStride":12},{"buffer":0,"byteOffset":25104,"byteLength":25104,"target":34962,"byteStride":12},{"buffer":0,"byteOffset":50208,"byteLength":16736,"target":34962,"byteStride":8},{"buffer":0,"byteOffset":66944,"byteLength":6168,"target":34963},{"buffer":0,"byteOffset":73112,"byteLength":72,"target":34963},{"buffer":0,"byteOffset":73184,"byteLength":4608,"target":34962,"byteStride":12},{"buffer":0,"byteOffset":77792,"byteLength":4608,"target":34962,"byteStride":12},{"buffer":0,"byteOffset":82400,"byteLength":3072,"target":34962,"byteStride":8},{"buffer":0,"byteOffset":85472,"byteLength":792,"target":34963},{"buffer":0,"byteOffset":86264,"byteLength":288,"target":34963}],"buffers":[{"byteLength":86552,"uri":"data:application/octet-stream;base64,"}],"accessors":[{"bufferView":0,"componentType":5126,"count":2092,"max":[0.3125,0.1875,0.39375001192092896],"min":[-0.75,-0.90625,-0.78125],"type":"VEC3"},{"bufferView":1,"componentType":5126,"count":2092,"max":[1,1,1],"min":[-1,-1,-1],"type":"VEC3"},{"bufferView":2,"componentType":5126,"count":2092,"max":[1,0.75],"min":[0,0],"type":"VEC2"},{"bufferView":3,"componentType":5123,"count":3084,"max":[2067],"min":[0],"type":"SCALAR"},{"bufferView":4,"componentType":5123,"count":36,"max":[2091],"min":[2068],"type":"SCALAR"},{"bufferView":5,"componentType":5126,"count":384,"max":[0.12999999523162842,0.265625,0.09687499701976776],"min":[-1.4643750190734863,-0.15341463685035706,-0.09062500298023224],"type":"VEC3"},{"bufferView":6,"componentType":5126,"count":384,"max":[1,1,1],"min":[-1,-1,-1],"type":"VEC3"},{"bufferView":7,"componentType":5126,"count":384,"max":[1,0.875],"min":[0,0],"type":"VEC2"},{"bufferView":8,"componentType":5123,"count":396,"max":[263],"min":[0],"type":"SCALAR"},{"bufferView":9,"componentType":5123,"count":144,"max":[383],"min":[264],"type":"SCALAR"}],"materials":[{"pbrMetallicRoughness":{"metallicFactor":0,"roughnessFactor":1,"baseColorTexture":{"index":0}},"alphaMode":"MASK","alphaCutoff":0.05,"doubleSided":true},{"pbrMetallicRoughness":{"metallicFactor":0,"roughnessFactor":1,"baseColorTexture":{"index":1}},"alphaMode":"MASK","alphaCutoff":0.05,"doubleSided":true},{"pbrMetallicRoughness":{"metallicFactor":0,"roughnessFactor":1,"baseColorTexture":{"index":2}},"alphaMode":"MASK","alphaCutoff":0.05,"doubleSided":true},{"pbrMetallicRoughness":{"metallicFactor":0,"roughnessFactor":1,"baseColorTexture":{"index":3}},"alphaMode":"MASK","alphaCutoff":0.05,"doubleSided":true}],"textures":[{"sampler":0,"source":0,"name":"texture"},{"sampler":1,"source":1,"name":"texture"},{"sampler":2,"source":2,"name":"texture"},{"sampler":3,"source":3,"name":"texture"}],"samplers":[{"magFilter":9728,"minFilter":9728,"wrapS":33071,"wrapT":33071},{"magFilter":9728,"minFilter":9728,"wrapS":33071,"wrapT":33071},{"magFilter":9728,"minFilter":9728,"wrapS":33071,"wrapT":33071},{"magFilter":9728,"minFilter":9728,"wrapS":33071,"wrapT":33071}],"images":[{"mimeType":"image/png","uri":"data:image/png;base64,"},{"mimeType":"image/png","uri":"data:image/png;base64,"},{"mimeType":"image/png","uri":"data:image/png;base64,"},{"mimeType":"image/png","uri":"data:image/png;base64,"}],"meshes":[{"primitives":[{"mode":4,"attributes":{"POSITION":0,"NORMAL":1,"TEXCOORD_0":2},"indices":3,"material":0},{"mode":4,"attributes":{"POSITION":0,"NORMAL":1,"TEXCOORD_0":2},"indices":4,"material":1}]},{"primitives":[{"mode":4,"attributes":{"POSITION":5,"NORMAL":6,"TEXCOORD_0":7},"indices":8,"material":2},{"mode":4,"attributes":{"POSITION":5,"NORMAL":6,"TEXCOORD_0":7},"indices":9,"material":3}]}]}