{"asset":{"version":"2.0","generator":"Blockbench 4.10.4 glTF exporter"},"scenes":[{"nodes":[5],"name":"blockbench_export"}],"scene":0,"nodes":[{"name":"beveled_cuboid","mesh":0},{"rotation":[0,0,-0.42261826174069944,0.9063077870366499],"translation":[0.125,0.3125,0.5],"name":"cube","mesh":1},{"name":"bone","children":[0,1]},{"translation":[-0.2278125,0.404375,-0.56103125],"name":"cube","mesh":2},{"rotation":[0,0,0.17364817766693033,0.984807753012208],"translation":[0.0625,0,0],"name":"bone2","children":[3]},{"children":[2,4]}],"bufferViews":[{"buffer":0,"byteOffset":0,"byteLength":25104,"target":34962,"byteStride":12},{"buffer":0,"byteOffset":25104,"byteLength":25104,"target":34962,"byteStride":12},{"buffer":0,"byteOffset":50208,"byteLength":16736,"target":34962,"byteStride":8},{"buffer":0,"byteOffset":66944,"byteLength":6096,"target":34963},{"buffer":0,"byteOffset":73040,"byteLength":72,"target":34963},{"buffer":0,"byteOffset":73112,"byteLength":72,"target":34963},{"buffer":0,"byteOffset":73184,"byteLength":288,"target":34962,"byteStride":12},{"buffer":0,"byteOffset":73472,"byteLength":288,"target":34962,"byteStride":12},{"buffer":0,"byteOffset":73760,"byteLength":192,"target":34962,"byteStride":8},{"buffer":0,"byteOffset":73952,"byteLength":72,"target":34963},{"buffer":0,"byteOffset":74024,"byteLength":2016,"target":34962,"byteStride":12},{"buffer":0,"byteOffset":76040,"byteLength":2016,"target":34962,"byteStride":12},{"buffer":0,"byteOffset":78056,"byteLength":1344,"target":34962,"byteStride":8},{"buffer":0,"byteOffset":79400,"byteLength":216,"target":34963},{"buffer":0,"byteOffset":79616,"byteLength":72,"target":34963},{"buffer":0,"byteOffset":79688,"byteLength":216,"target":34963}],"buffers":[{"byteLength":79904,"uri":"data:application/octet-stream;base64,"}],"accessors":[{"bufferView":0,"componentType":5126,"count":2092,"max":[0.625,1.0625,0.581250011920929],"min":[-0.46875,0,-0.59375],"type":"VEC3"},{"bufferView":1,"componentType":5126,"count":2092,"max":[1,1,1],"min":[-1,-1,-1],"type":"VEC3"},{"bufferView":2,"componentType":5126,"count":2092,"max":[1,0.75],"min":[0,0],"type":"VEC2"},{"bufferView":3,"componentType":5123,"count":3048,"max":[2043],"min":[0],"type":"SCALAR"},{"bufferView":4,"componentType":5123,"count":36,"max":[2067],"min":[2044],"type":"SCALAR"},{"bufferView":5,"componentType":5123,"count":36,"max":[2091],"min":[2068],"type":"SCALAR"},{"bufferView":6,"componentType":5126,"count":24,"max":[0.125,0.125,0.0625],"min":[-0.0625,0,-0.0625],"type":"VEC3"},{"bufferView":7,"componentType":5126,"count":24,"max":[1,1,1],"min":[-1,-1,-1],"type":"VEC3"},{"bufferView":8,"componentType":5126,"count":24,"max":[0.53125,0.484375],"min":[0.140625,0.0234375],"type":"VEC2"},{"bufferView":9,"componentType":5123,"count":36,"max":[23],"min":[0],"type":"SCALAR"},{"bufferView":10,"componentType":5126,"count":168,"max":[0.27863872051239014,0.10831136256456375,0.04540624842047691],"min":[-0.8565624952316284,-0.10736005008220673,-0.04209375008940697],"type":"VEC3"},{"bufferView":11,"componentType":5126,"count":168,"max":[1,1,1],"min":[-1,-1,-1],"type":"VEC3"},{"bufferView":12,"componentType":5126,"count":168,"max":[1,0.875],"min":[0,0],"type":"VEC2"},{"bufferView":13,"componentType":5123,"count":108,"max":[71],"min":[0],"type":"SCALAR"},{"bufferView":14,"componentType":5123,"count":36,"max":[95],"min":[72],"type":"SCALAR"},{"bufferView":15,"componentType":5123,"count":108,"max":[167],"min":[96],"type":"SCALAR"}],"materials":[{"pbrMetallicRoughness":{"metallicFactor":0,"roughnessFactor":1,"baseColorTexture":{"index":0}},"alphaMode":"MASK","alphaCutoff":0.05,"doubleSided":true},{"pbrMetallicRoughness":{"metallicFactor":0,"roughnessFactor":1,"baseColorTexture":{"index":1}},"alphaMode":"MASK","alphaCutoff":0.05,"doubleSided":true},{"pbrMetallicRoughness":{"metallicFactor":0,"roughnessFactor":1},"alphaMode":"MASK","alphaCutoff":0.05,"doubleSided":true},{"pbrMetallicRoughness":{"metallicFactor":0,"roughnessFactor":1,"baseColorTexture":{"index":2}},"alphaMode":"MASK","alphaCutoff":0.05,"doubleSided":true},{"pbrMetallicRoughness":{"metallicFactor":0,"roughnessFactor":1,"baseColorTexture":{"index":3}},"alphaMode":"MASK","alphaCutoff":0.05,"doubleSided":true}],"textures":[{"sampler":0,"source":0,"name":"texture"},{"sampler":1,"source":1,"name":"texture"},{"sampler":2,"source":2,"name":"texture"},{"sampler":3,"source":3,"name":"texture"}],"samplers":[{"magFilter":9728,"minFilter":9728,"wrapS":33071,"wrapT":33071},{"magFilter":9728,"minFilter":9728,"wrapS":33071,"wrapT":33071},{"magFilter":9728,"minFilter":9728,"wrapS":33071,"wrapT":33071},{"magFilter":9728,"minFilter":9728,"wrapS":33071,"wrapT":33071}],"images":[{"mimeType":"image/png","uri":"data:image/png;base64,"},{"mimeType":"image/png","uri":"data:image/png;base64,"},{"mimeType":"image/png","uri":"data:image/png;base64,"},{"mimeType":"image/png","uri":"data:image/png;base64,"}],"meshes":[{"primitives":[{"mode":4,"attributes":{"POSITION":0,"NORMAL":1,"TEXCOORD_0":2},"indices":3,"material":0},{"mode":4,"attributes":{"POSITION":0,"NORMAL":1,"TEXCOORD_0":2},"indices":4,"material":1},{"mode":4,"attributes":{"POSITION":0,"NORMAL":1,"TEXCOORD_0":2},"indices":5,"material":2}]},{"primitives":[{"mode":4,"attributes":{"POSITION":6,"NORMAL":7,"TEXCOORD_0":8},"indices":9,"material":0}]},{"primitives":[{"mode":4,"attributes":{"POSITION":10,"NORMAL":11,"TEXCOORD_0":12},"indices":13,"material":3},{"mode":4,"attributes":{"POSITION":10,"NORMAL":11,"TEXCOORD_0":12},"indices":14,"material":4},{"mode":4,"attributes":{"POSITION":10,"NORMAL":11,"TEXCOORD_0":12},"indices":15,"material":3}]}]}