{"asset":{"version":"2.0","generator":"Blockbench 4.10.4 glTF exporter"},"scenes":[{"nodes":[3],"name":"blockbench_export"}],"scene":0,"nodes":[{"rotation":[0,0,-0.1521233861899167,0.9883615104677607],"name":"beveled_cuboid","mesh":0},{"name":"beveled_cuboid","mesh":1},{"name":"bone","children":[1]},{"children":[0,2]}],"bufferViews":[{"buffer":0,"byteOffset":0,"byteLength":30120,"target":34962,"byteStride":12},{"buffer":0,"byteOffset":30120,"byteLength":30120,"target":34962,"byteStride":12},{"buffer":0,"byteOffset":60240,"byteLength":20080,"target":34962,"byteStride":8},{"buffer":0,"byteOffset":80320,"byteLength":7464,"target":34963},{"buffer":0,"byteOffset":87784,"byteLength":26256,"target":34962,"byteStride":12},{"buffer":0,"byteOffset":114040,"byteLength":26256,"target":34962,"byteStride":12},{"buffer":0,"byteOffset":140296,"byteLength":17504,"target":34962,"byteStride":8},{"buffer":0,"byteOffset":157800,"byteLength":4872,"target":34963},{"buffer":0,"byteOffset":162672,"byteLength":72,"target":34963},{"buffer":0,"byteOffset":162744,"byteLength":1512,"target":34963},{"buffer":0,"byteOffset":164256,"byteLength":72,"target":34963}],"buffers":[{"byteLength":164328,"uri":"data:application/octet-stream;base64,"}],"accessors":[{"bufferView":0,"componentType":5126,"count":2510,"max":[0.21875,1,0],"min":[-0.8343750238418579,0.17769238352775574,-0.621874988079071],"type":"VEC3"},{"bufferView":1,"componentType":5126,"count":2510,"max":[1,1,1],"min":[-1,-1,-1],"type":"VEC3"},{"bufferView":2,"componentType":5126,"count":2510,"max":[4.923168659210205,4.908832550048828],"min":[0,0],"type":"VEC2"},{"bufferView":3,"componentType":5123,"count":3732,"max":[2509],"min":[0],"type":"SCALAR"},{"bufferView":4,"componentType":5126,"count":2188,"max":[0.6875,1.0625,0.581250011920929],"min":[-0.46875,0,-0.59375],"type":"VEC3"},{"bufferView":5,"componentType":5126,"count":2188,"max":[1,1,1],"min":[-1,-1,-1],"type":"VEC3"},{"bufferView":6,"componentType":5126,"count":2188,"max":[1,0.75],"min":[0,0],"type":"VEC2"},{"bufferView":7,"componentType":5123,"count":2436,"max":[1635],"min":[0],"type":"SCALAR"},{"bufferView":8,"componentType":5123,"count":36,"max":[1659],"min":[1636],"type":"SCALAR"},{"bufferView":9,"componentType":5123,"count":756,"max":[2163],"min":[1660],"type":"SCALAR"},{"bufferView":10,"componentType":5123,"count":36,"max":[2187],"min":[2164],"type":"SCALAR"}],"materials":[{"pbrMetallicRoughness":{"metallicFactor":0,"roughnessFactor":1,"baseColorTexture":{"index":0}},"alphaMode":"MASK","alphaCutoff":0.05,"doubleSided":true},{"pbrMetallicRoughness":{"metallicFactor":0,"roughnessFactor":1,"baseColorTexture":{"index":1}},"alphaMode":"MASK","alphaCutoff":0.05,"doubleSided":true},{"pbrMetallicRoughness":{"metallicFactor":0,"roughnessFactor":1,"baseColorTexture":{"index":2}},"alphaMode":"MASK","alphaCutoff":0.05,"doubleSided":true},{"pbrMetallicRoughness":{"metallicFactor":0,"roughnessFactor":1,"baseColorTexture":{"index":3}},"alphaMode":"MASK","alphaCutoff":0.05,"doubleSided":true}],"textures":[{"sampler":0,"source":0,"name":"texture.png"},{"sampler":1,"source":1,"name":"texture"},{"sampler":2,"source":2,"name":"texture"},{"sampler":3,"source":3,"name":"texture"}],"samplers":[{"magFilter":9728,"minFilter":9728,"wrapS":33071,"wrapT":33071},{"magFilter":9728,"minFilter":9728,"wrapS":33071,"wrapT":33071},{"magFilter":9728,"minFilter":9728,"wrapS":33071,"wrapT":33071},{"magFilter":9728,"minFilter":9728,"wrapS":33071,"wrapT":33071}],"images":[{"mimeType":"image/png","uri":"data:image/png;base64,"},{"mimeType":"image/png","uri":"data:image/png;base64,"},{"mimeType":"image/png","uri":"data:image/png;base64,"},{"mimeType":"image/png","uri":"data:image/png;base64,"}],"meshes":[{"primitives":[{"mode":4,"attributes":{"POSITION":0,"NORMAL":1,"TEXCOORD_0":2},"indices":3,"material":0}]},{"primitives":[{"mode":4,"attributes":{"POSITION":4,"NORMAL":5,"TEXCOORD_0":6},"indices":7,"material":1},{"mode":4,"attributes":{"POSITION":4,"NORMAL":5,"TEXCOORD_0":6},"indices":8,"material":2},{"mode":4,"attributes":{"POSITION":4,"NORMAL":5,"TEXCOORD_0":6},"indices":9,"material":1},{"mode":4,"attributes":{"POSITION":4,"NORMAL":5,"TEXCOORD_0":6},"indices":10,"material":3}]}]}