{"asset":{"version":"2.0","generator":"Blockbench 4.10.4 glTF exporter"},"scenes":[{"nodes":[1],"name":"blockbench_export"}],"scene":0,"nodes":[{"rotation":[-0.31024172301899294,0.08494503333042727,0.5277180789310689,0.7861603168438364],"translation":[-0.1875,1.3125,0.3125],"name":"tube","mesh":0},{"children":[0]}],"bufferViews":[{"buffer":0,"byteOffset":0,"byteLength":153888,"target":34962,"byteStride":12},{"buffer":0,"byteOffset":153888,"byteLength":153888,"target":34962,"byteStride":12},{"buffer":0,"byteOffset":307776,"byteLength":102592,"target":34962,"byteStride":8},{"buffer":0,"byteOffset":410368,"byteLength":480,"target":34963},{"buffer":0,"byteOffset":410848,"byteLength":480,"target":34963},{"buffer":0,"byteOffset":411328,"byteLength":4320,"target":34963},{"buffer":0,"byteOffset":415648,"byteLength":33192,"target":34963}],"buffers":[{"byteLength":448840,"uri":"data:application/octet-stream;base64,"}],"accessors":[{"bufferView":0,"componentType":5126,"count":12824,"max":[1.4916508197784424,0.8902482986450195,0.7008196115493774],"min":[-0.8546516299247742,-0.986140251159668,-1.1247309446334839],"type":"VEC3"},{"bufferView":1,"componentType":5126,"count":12824,"max":[1,1,1],"min":[-0.9902870059013367,-1,-1],"type":"VEC3"},{"bufferView":2,"componentType":5126,"count":12824,"max":[0.625,0.65625],"min":[0,0],"type":"VEC2"},{"bufferView":3,"componentType":5123,"count":240,"max":[159],"min":[0],"type":"SCALAR"},{"bufferView":4,"componentType":5123,"count":240,"max":[319],"min":[160],"type":"SCALAR"},{"bufferView":5,"componentType":5123,"count":2160,"max":[1759],"min":[320],"type":"SCALAR"},{"bufferView":6,"componentType":5123,"count":16596,"max":[12823],"min":[1760],"type":"SCALAR"}],"materials":[{"pbrMetallicRoughness":{"metallicFactor":0,"roughnessFactor":1,"baseColorTexture":{"index":0}},"alphaMode":"MASK","alphaCutoff":0.05,"doubleSided":true},{"pbrMetallicRoughness":{"metallicFactor":0,"roughnessFactor":1,"baseColorTexture":{"index":1}},"alphaMode":"MASK","alphaCutoff":0.05,"doubleSided":true},{"pbrMetallicRoughness":{"metallicFactor":0,"roughnessFactor":1,"baseColorTexture":{"index":2}},"alphaMode":"MASK","alphaCutoff":0.05,"doubleSided":true}],"textures":[{"sampler":0,"source":0,"name":"texture"},{"sampler":1,"source":1,"name":"texture"},{"sampler":2,"source":2,"name":"texture"}],"samplers":[{"magFilter":9728,"minFilter":9728,"wrapS":33071,"wrapT":33071},{"magFilter":9728,"minFilter":9728,"wrapS":33071,"wrapT":33071},{"magFilter":9728,"minFilter":9728,"wrapS":33071,"wrapT":33071}],"images":[{"mimeType":"image/png","uri":"data:image/png;base64,"},{"mimeType":"image/png","uri":"data:image/png;base64,"},{"mimeType":"image/png","uri":"data:image/png;base64,"}],"meshes":[{"primitives":[{"mode":4,"attributes":{"POSITION":0,"NORMAL":1,"TEXCOORD_0":2},"indices":3,"material":0},{"mode":4,"attributes":{"POSITION":0,"NORMAL":1,"TEXCOORD_0":2},"indices":4,"material":1},{"mode":4,"attributes":{"POSITION":0,"NORMAL":1,"TEXCOORD_0":2},"indices":5,"material":0},{"mode":4,"attributes":{"POSITION":0,"NORMAL":1,"TEXCOORD_0":2},"indices":6,"material":2}]}]}